<svg width="40" height="40" viewBox="0 0 40 40" fill="none" xmlns="http://www.w3.org/2000/svg">
<path d="M37.3333 19.9999V25.3333C37.3333 25.6869 37.1928 26.026 36.9428 26.2761C36.6927 26.5261 36.3536 26.6666 36 26.6666C35.6464 26.6666 35.3072 26.5261 35.0572 26.2761C34.8071 26.026 34.6666 25.6869 34.6666 25.3333C34.6666 25.3333 34.8266 23.9999 32 23.9999H29.3333V30.6666C29.3333 31.0202 29.1928 31.3593 28.9428 31.6094C28.6927 31.8594 28.3536 31.9999 28 31.9999H6.66665C6.31302 31.9999 5.97389 31.8594 5.72384 31.6094C5.47379 31.3593 5.33331 31.0202 5.33331 30.6666V19.9999C5.33331 19.6463 5.47379 19.3072 5.72384 19.0571C5.97389 18.8071 6.31302 18.6666 6.66665 18.6666H28C28.3536 18.6666 28.6927 18.8071 28.9428 19.0571C29.1928 19.3072 29.3333 19.6463 29.3333 19.9999V21.3333H32C34.8266 21.3333 34.6666 19.9999 34.6666 19.9999C34.6666 19.6463 34.8071 19.3072 35.0572 19.0571C35.3072 18.8071 35.6464 18.6666 36 18.6666C36.3536 18.6666 36.6927 18.8071 36.9428 19.0571C37.1928 19.3072 37.3333 19.6463 37.3333 19.9999ZM10.6666 7.99992C9.25216 7.99992 7.8956 8.56182 6.89541 9.56202C5.89522 10.5622 5.33331 11.9188 5.33331 13.3333C5.33331 14.7477 5.89522 16.1043 6.89541 17.1045C7.8956 18.1047 9.25216 18.6666 10.6666 18.6666C12.0811 18.6666 13.4377 18.1047 14.4379 17.1045C15.4381 16.1043 16 14.7477 16 13.3333C16 11.9188 15.4381 10.5622 14.4379 9.56202C13.4377 8.56182 12.0811 7.99992 10.6666 7.99992ZM10.6666 15.9999C9.9594 15.9999 9.28113 15.719 8.78103 15.2189C8.28093 14.7188 7.99998 14.0405 7.99998 13.3333C7.99998 12.626 8.28093 11.9477 8.78103 11.4476C9.28113 10.9475 9.9594 10.6666 10.6666 10.6666C11.3739 10.6666 12.0522 10.9475 12.5523 11.4476C13.0524 11.9477 13.3333 12.626 13.3333 13.3333C13.3333 14.0405 13.0524 14.7188 12.5523 15.2189C12.0522 15.719 11.3739 15.9999 10.6666 15.9999ZM22.6666 5.33325C20.8985 5.33325 19.2028 6.03563 17.9526 7.28587C16.7024 8.53612 16 10.2318 16 11.9999C16 13.768 16.7024 15.4637 17.9526 16.714C19.2028 17.9642 20.8985 18.6666 22.6666 18.6666C24.4348 18.6666 26.1305 17.9642 27.3807 16.714C28.6309 15.4637 29.3333 13.768 29.3333 11.9999C29.3333 10.2318 28.6309 8.53612 27.3807 7.28587C26.1305 6.03563 24.4348 5.33325 22.6666 5.33325ZM22.6666 15.9999C21.6058 15.9999 20.5884 15.5785 19.8382 14.8283C19.0881 14.0782 18.6666 13.0608 18.6666 11.9999C18.6666 10.9391 19.0881 9.92164 19.8382 9.17149C20.5884 8.42135 21.6058 7.99992 22.6666 7.99992C23.7275 7.99992 24.7449 8.42135 25.4951 9.17149C26.2452 9.92164 26.6666 10.9391 26.6666 11.9999C26.6666 13.0608 26.2452 14.0782 25.4951 14.8283C24.7449 15.5785 23.7275 15.9999 22.6666 15.9999Z" fill="#B3B3B3"/>
</svg>
