<svg width="40" height="40" viewBox="0 0 40 40" fill="none" xmlns="http://www.w3.org/2000/svg">
<path fill-rule="evenodd" clip-rule="evenodd" d="M20 3.33325C23.9782 3.33325 27.7936 4.9136 30.6066 7.72665C33.4196 10.5397 35 14.355 35 18.3333C35 23.4566 32.2067 27.6499 29.2633 30.6583C27.7928 32.145 26.1882 33.493 24.47 34.6849L23.76 35.1683L23.4267 35.3899L22.7983 35.7899L22.2383 36.1316L21.545 36.5349C21.0744 36.8035 20.5419 36.9448 20 36.9448C19.4581 36.9448 18.9256 36.8035 18.455 36.5349L17.7617 36.1316L16.895 35.5983L16.575 35.3899L15.8917 34.9349C14.0381 33.6808 12.3115 32.2484 10.7367 30.6583C7.79333 27.6483 5 23.4566 5 18.3333C5 14.355 6.58035 10.5397 9.3934 7.72665C12.2064 4.9136 16.0218 3.33325 20 3.33325ZM20 6.66659C16.9058 6.66659 13.9383 7.89575 11.7504 10.0837C9.5625 12.2716 8.33333 15.2391 8.33333 18.3333C8.33333 22.2033 10.4533 25.5999 13.1183 28.3266C14.2642 29.4866 15.5028 30.5512 16.8217 31.5099L17.585 32.0533C17.8317 32.2255 18.0689 32.3855 18.2967 32.5333L18.9467 32.9499L19.5183 33.2983L20 33.5799L20.7583 33.1316L21.37 32.7483C21.6956 32.5416 22.0439 32.3099 22.415 32.0533L23.1783 31.5099C24.4972 30.5512 25.7358 29.4866 26.8817 28.3266C29.5467 25.6016 31.6667 22.2033 31.6667 18.3333C31.6667 15.2391 30.4375 12.2716 28.2496 10.0837C26.0617 7.89575 23.0942 6.66659 20 6.66659ZM20 11.6666C21.7681 11.6666 23.4638 12.369 24.714 13.6192C25.9643 14.8694 26.6667 16.5651 26.6667 18.3333C26.6667 20.1014 25.9643 21.7971 24.714 23.0473C23.4638 24.2975 21.7681 24.9999 20 24.9999C18.2319 24.9999 16.5362 24.2975 15.286 23.0473C14.0357 21.7971 13.3333 20.1014 13.3333 18.3333C13.3333 16.5651 14.0357 14.8694 15.286 13.6192C16.5362 12.369 18.2319 11.6666 20 11.6666ZM20 14.9999C19.1159 14.9999 18.2681 15.3511 17.643 15.9762C17.0179 16.6014 16.6667 17.4492 16.6667 18.3333C16.6667 19.2173 17.0179 20.0652 17.643 20.6903C18.2681 21.3154 19.1159 21.6666 20 21.6666C20.8841 21.6666 21.7319 21.3154 22.357 20.6903C22.9821 20.0652 23.3333 19.2173 23.3333 18.3333C23.3333 17.4492 22.9821 16.6014 22.357 15.9762C21.7319 15.3511 20.8841 14.9999 20 14.9999Z" fill="#1E1E1E"/>
</svg>
