<svg width="40" height="40" viewBox="0 0 40 40" fill="none" xmlns="http://www.w3.org/2000/svg">
<path d="M25 8.33325V11.6666M25 18.3333V21.6666M25 28.3333V31.6666M8.33333 8.33325H31.6667C32.5507 8.33325 33.3986 8.68444 34.0237 9.30956C34.6488 9.93468 35 10.7825 35 11.6666V16.6666C34.1159 16.6666 33.2681 17.0178 32.643 17.6429C32.0179 18.268 31.6667 19.1159 31.6667 19.9999C31.6667 20.884 32.0179 21.7318 32.643 22.3569C33.2681 22.9821 34.1159 23.3333 35 23.3333V28.3333C35 29.2173 34.6488 30.0652 34.0237 30.6903C33.3986 31.3154 32.5507 31.6666 31.6667 31.6666H8.33333C7.44928 31.6666 6.60143 31.3154 5.97631 30.6903C5.35119 30.0652 5 29.2173 5 28.3333V23.3333C5.88405 23.3333 6.7319 22.9821 7.35702 22.3569C7.98214 21.7318 8.33333 20.884 8.33333 19.9999C8.33333 19.1159 7.98214 18.268 7.35702 17.6429C6.7319 17.0178 5.88405 16.6666 5 16.6666V11.6666C5 10.7825 5.35119 9.93468 5.97631 9.30956C6.60143 8.68444 7.44928 8.33325 8.33333 8.33325Z" stroke="#B3B3B3" stroke-width="2" stroke-linecap="round" stroke-linejoin="round"/>
</svg>
